<?xml version="1.0" encoding="utf-8"?>
<!-- Generator: Adobe Illustrator 27.8.0, SVG Export Plug-In . SVG Version: 6.00 Build 0)  -->
<svg version="1.1" id="Layer_1" xmlns="http://www.w3.org/2000/svg" xmlns:xlink="http://www.w3.org/1999/xlink" x="0px" y="0px"
	 viewBox="0 0 1801.45 577.63" style="enable-background:new 0 0 1801.45 577.63;" xml:space="preserve">
<style type="text/css">
	.st0{fill:#CFCFE5;}
	.st1{fill:#1A272E;}
	.st2{opacity:0.28;fill:#8D8DB1;}
	.st3{fill:#8D8DB1;}
	.st4{fill:#BDBDD8;}
	.st5{fill:#FFFFFF;}
	.st6{fill:#4182EB;}
	.st7{opacity:0.33;fill:#1A272E;}
	.st8{clip-path:url(#XMLID_00000166677596452207529370000008928838114345096892_);fill:#C1271B;}
	.st9{opacity:0.32;fill:#FFFFFF;}
	.st10{clip-path:url(#XMLID_00000155855355686108398070000016527311292477150620_);fill:#BDBDD8;}
	.st11{fill:#F1BF46;}
	.st12{fill:#EA4230;}
</style>
<g>
	<g>
		<ellipse class="st0" cx="811.11" cy="548.37" rx="379.91" ry="29.26"/>
		<g>
			<path class="st1" d="M1114.46,334.75c0,240.28-134.69,219.64-300.83,219.64s-300.83,11.95-300.83-219.64
				c0-166.15,134.69-260.49,300.83-260.49S1114.46,168.6,1114.46,334.75z"/>
			<path class="st2" d="M831.56,97.18c0,0-250.28-22.92-269.7,281.44c0,0-19.57,181.32,251.77,175.77c0,0,231.83,8.87,243.2-141.62
				C1067.36,273.41,1055.91,111.94,831.56,97.18z"/>
			<g>
				
					<ellipse transform="matrix(0.7071 -0.7071 0.7071 0.7071 14.2824 668.113)" class="st3" cx="813.62" cy="316.82" rx="219.64" ry="219.64"/>
				<g>
					
						<ellipse transform="matrix(0.7071 -0.7071 0.7071 0.7071 14.2824 668.113)" class="st4" cx="813.62" cy="316.82" rx="202.29" ry="202.29"/>
					<g>
						<path class="st1" d="M813.38,143.01h36.07c5.36,0,9.06,5.39,7.12,10.39l-19.59,50.65l-16.48,42.62
							c-2.52,6.51-11.73,6.51-14.24,0l-16.48-42.62l-19.59-50.65c-1.94-5,1.76-10.39,7.12-10.39H813.38z"/>
						<path class="st1" d="M813.38,489.09h-36.07c-5.36,0-9.06-5.39-7.12-10.39l19.59-50.65l16.48-42.62
							c2.52-6.51,11.73-6.51,14.24,0l16.48,42.62l19.59,50.65c1.94,5-1.76,10.39-7.12,10.39H813.38z"/>
					</g>
					<g>
						<path class="st1" d="M935.74,193.69l25.51,25.51c3.79,3.79,2.6,10.21-2.31,12.38l-49.67,21.96l-41.8,18.48
							c-6.38,2.82-12.89-3.69-10.07-10.07l18.48-41.8l21.96-49.67c2.17-4.91,8.59-6.1,12.38-2.31L935.74,193.69z"/>
						<path class="st1" d="M691.02,438.4l-25.51-25.51c-3.79-3.79-2.6-10.21,2.31-12.38l49.67-21.96l41.8-18.48
							c6.38-2.82,12.89,3.69,10.07,10.07l-18.48,41.8l-21.96,49.67c-2.17,4.91-8.59,6.1-12.38,2.31L691.02,438.4z"/>
					</g>
					<g>
						<path class="st1" d="M986.42,316.05v36.07c0,5.36-5.39,9.06-10.39,7.12l-50.65-19.59l-42.62-16.48
							c-6.51-2.52-6.51-11.73,0-14.24l42.62-16.48l50.65-19.59c5-1.94,10.39,1.76,10.39,7.12V316.05z"/>
						<path class="st1" d="M640.34,316.05v-36.07c0-5.36,5.39-9.06,10.39-7.12l50.65,19.59L744,308.92c6.51,2.52,6.51,11.73,0,14.24
							l-42.62,16.48l-50.65,19.59c-5,1.94-10.39-1.76-10.39-7.12V316.05z"/>
					</g>
					<g>
						<path class="st1" d="M935.74,438.4l-25.51,25.51c-3.79,3.79-10.21,2.6-12.38-2.31l-21.96-49.67l-18.48-41.8
							c-2.82-6.38,3.69-12.89,10.07-10.07l41.8,18.48l49.67,21.96c4.91,2.17,6.1,8.59,2.31,12.38L935.74,438.4z"/>
						<path class="st1" d="M691.02,193.69l25.51-25.51c3.79-3.79,10.21-2.6,12.38,2.31l21.96,49.67l18.48,41.8
							c2.82,6.38-3.69,12.89-10.07,10.07l-41.8-18.48l-49.67-21.96c-4.91-2.17-6.1-8.59-2.31-12.38L691.02,193.69z"/>
					</g>
					<g>
						
							<ellipse transform="matrix(0.2298 -0.9732 0.9732 0.2298 318.3511 1035.8864)" class="st1" cx="813.62" cy="316.82" rx="43.4" ry="43.4"/>
						<circle class="st5" cx="813.62" cy="316.82" r="17.93"/>
					</g>
				</g>
			</g>
			<path class="st2" d="M647.46,136.24c0,0-127.21,98.45-104.12,235.2C543.34,371.44,494.07,231.99,647.46,136.24z"/>
			<path class="st2" d="M1041.19,186.59c0,0,47.16,77.78,43.85,213.48C1085.04,400.06,1108.21,257.75,1041.19,186.59z"/>
		</g>
		<g>
			<path class="st6" d="M1399.82,442.07h-235.48V323.32L1407.89,0h116.75v320.94h80.68v121.14h-80.68v112.76h-124.82V442.07z
				 M1399.82,195.91l-92.02,125.03h92.02V195.91z"/>
		</g>
		<g>
			<path class="st6" d="M235.48,442.07H0l16.55-118.75L260.1,0h100.2v320.94h80.68v121.14H360.3v112.76H235.48V442.07z
				 M235.48,195.91l-92.02,125.03h92.02V195.91z"/>
		</g>
	</g>
	<g>
		<g>
			<g>
				<rect x="1717.38" y="99.7" class="st4" width="14.05" height="140.61"/>
				<rect x="1648.87" y="86.92" class="st1" width="149.03" height="12.78"/>
				<path class="st1" d="M1652.22,103.25h-3.23c-1.07,0-1.93-0.87-1.93-1.93V85.3c0-1.07,0.87-1.93,1.93-1.93h3.23
					c1.07,0,1.93,0.87,1.93,1.93v16.02C1654.15,102.39,1653.29,103.25,1652.22,103.25z"/>
				<path class="st1" d="M1799.52,103.25h-3.23c-1.07,0-1.93-0.87-1.93-1.93V85.3c0-1.07,0.87-1.93,1.93-1.93h3.23
					c1.07,0,1.93,0.87,1.93,1.93v16.02C1801.45,102.39,1800.59,103.25,1799.52,103.25z"/>
				<rect x="1707.6" y="84.68" class="st4" width="33.12" height="17.27"/>
				<polygon class="st7" points="1717.38,101.95 1731.43,101.95 1717.38,109.77 				"/>
			</g>
			<g>
				<g>
					<g>
						<defs>
							<path id="XMLID_1_" d="M1754.49,528.23h-60.17V240.85c0-11.54,9.35-20.89,20.89-20.89h18.39c11.54,0,20.89,9.35,20.89,20.89
								V528.23z"/>
						</defs>
						<use xlink:href="#XMLID_1_"  style="overflow:visible;fill:#EA4230;"/>
						<clipPath id="XMLID_00000035526013457449481090000004869859113752104597_">
							<use xlink:href="#XMLID_1_"  style="overflow:visible;"/>
						</clipPath>
						
							<rect x="1724.16" y="211.06" style="clip-path:url(#XMLID_00000035526013457449481090000004869859113752104597_);fill:#C1271B;" width="41.4" height="328.78"/>
					</g>
					<path class="st1" d="M1776.3,552.77h-102.64l0,0c0-14.28,11.58-25.86,25.86-25.86h50.91
						C1764.72,526.91,1776.3,538.49,1776.3,552.77L1776.3,552.77z"/>
					<path class="st1" d="M1781.8,558.51h-113.94c-1.04,0-1.88-0.84-1.88-1.88v-3.47c0-1.04,0.84-1.88,1.88-1.88h113.94
						c1.04,0,1.88,0.84,1.88,1.88v3.47C1783.68,557.67,1782.84,558.51,1781.8,558.51z"/>
				</g>
				<path class="st1" d="M1738.58,223.4h-28.34c-2.66,0-4.82-2.16-4.82-4.82v-2.69c0-2.66,2.16-4.82,4.82-4.82h28.34
					c2.66,0,4.82,2.16,4.82,4.82v2.69C1743.4,221.24,1741.24,223.4,1738.58,223.4z"/>
			</g>
			<g>
				<path class="st9" d="M1708.76,390.65L1708.76,390.65c-3.3,0-5.98-2.68-5.98-5.98v-40.68c0-3.3,2.68-5.98,5.98-5.98l0,0
					c3.3,0,5.98,2.68,5.98,5.98v40.68C1714.75,387.97,1712.07,390.65,1708.76,390.65z"/>
				<path class="st9" d="M1708.76,410.19L1708.76,410.19c-3.3,0-5.98-2.68-5.98-5.98v-4.16c0-3.3,2.68-5.98,5.98-5.98l0,0
					c3.3,0,5.98,2.68,5.98,5.98v4.16C1714.75,407.51,1712.07,410.19,1708.76,410.19z"/>
			</g>
		</g>
		<g>
			
				<ellipse transform="matrix(0.1602 -0.9871 0.9871 0.1602 1165.8345 1942.3573)" class="st1" cx="1724.4" cy="286.04" rx="51" ry="51"/>
			<g>
				<defs>
					
						<ellipse id="XMLID_2_" transform="matrix(0.9239 -0.3827 0.3827 0.9239 21.7989 681.6731)" cx="1724.4" cy="286.04" rx="44.72" ry="44.72"/>
				</defs>
				<use xlink:href="#XMLID_2_"  style="overflow:visible;fill:#FFFFFF;"/>
				<clipPath id="XMLID_00000183214283605976595530000004850811593807462591_">
					<use xlink:href="#XMLID_2_"  style="overflow:visible;"/>
				</clipPath>
				<path style="clip-path:url(#XMLID_00000183214283605976595530000004850811593807462591_);fill:#BDBDD8;" d="M1751.86,247.22
					c0,0,1.64,60.16-54.06,78.25c0,0,39.96,25.63,71.31-8.72C1800.47,282.4,1751.86,247.22,1751.86,247.22z"/>
			</g>
		</g>
		<circle class="st1" cx="1724.83" cy="286.04" r="7.04"/>
		<g>
			<g>
				<rect x="1723.57" y="247.22" class="st1" width="2.53" height="12.1"/>
				<rect x="1723.57" y="313.37" class="st1" width="2.53" height="12.1"/>
			</g>
			<g>
				
					<rect x="1756.64" y="280.3" transform="matrix(-1.836970e-16 1 -1 -1.836970e-16 2044.2556 -1471.5642)" class="st1" width="2.53" height="12.1"/>
				
					<rect x="1690.49" y="280.3" transform="matrix(-1.836970e-16 1 -1 -1.836970e-16 1978.1022 -1405.4108)" class="st1" width="2.53" height="12.1"/>
			</g>
			<g>
				
					<rect x="1746.96" y="256.91" transform="matrix(0.7071 0.7071 -0.7071 0.7071 697.981 -1159.1613)" class="st1" width="2.53" height="12.1"/>
				
					<rect x="1700.18" y="303.69" transform="matrix(0.7071 0.7071 -0.7071 0.7071 717.3568 -1112.3838)" class="st1" width="2.53" height="12.1"/>
			</g>
			<g>
				
					<rect x="1746.96" y="303.69" transform="matrix(-0.7071 0.7071 -0.7071 -0.7071 3203.4167 -707.4299)" class="st1" width="2.53" height="12.1"/>
				
					<rect x="1700.18" y="256.91" transform="matrix(-0.7071 0.7071 -0.7071 -0.7071 3090.4858 -754.2074)" class="st1" width="2.53" height="12.1"/>
			</g>
		</g>
		<polygon class="st11" points="1741.16,270.02 1725.9,282.02 1724.83,286.35 1729.16,285.28 		"/>
	</g>
	<g>
		<g>
			<rect x="803.91" y="499.68" class="st1" width="19.43" height="19.43"/>
			<g>
				<path class="st12" d="M1420.2,529.15c-39.44,0-76.7-10.93-113.9-33.41c-32.91-19.88-61.7-45.78-92.19-73.2
					c-58.88-52.96-119.76-107.72-211.58-114.22c-49.64-3.52-90.25,8.95-120.71,37.07c-59.83,55.22-61.43,153.37-61.44,154.35
					l-13.49-0.12c0.01-1.07,0.31-26.48,8.46-59.43c7.57-30.6,23.64-73.6,57.27-104.66c33.31-30.78,77.34-44.46,130.88-40.67
					c96.44,6.83,159.08,63.17,219.65,117.65c58.98,53.05,114.68,103.15,197.07,103.15c95.75,0,138.77-19.6,173.33-35.36
					c26.55-12.1,49.48-22.55,86.79-19.63l-1.05,13.45c-33.85-2.65-54.27,6.66-80.14,18.46
					C1563.37,508.87,1518.88,529.15,1420.2,529.15z"/>
			</g>
		</g>
		<rect x="1665.5" y="453.1" class="st1" width="28.59" height="28.59"/>
	</g>
</g>
</svg>
