<svg width="20" height="20" viewBox="0 0 20 20" fill="none" xmlns="http://www.w3.org/2000/svg">
<path d="M3.555 13.3833C4.26004 14.8087 5.4035 15.9706 6.8175 16.6983C8.22137 17.4191 9.82198 17.6625 11.3767 17.3916C12.9362 17.1174 14.365 16.3456 15.4492 15.1916C16.5434 14.0267 17.2402 12.5449 17.4392 10.9591C17.6413 9.3697 17.3369 7.75703 16.5692 6.35075C15.8086 4.95519 14.62 3.84075 13.1783 3.17159C11.7464 2.50839 10.1372 2.3305 8.595 2.66492C7.05333 2.99909 5.79 3.75909 4.745 4.96075C4.61917 5.09409 4.1325 5.63242 3.72833 6.44492M6.25 6.66659L3.2425 7.26659L2.5 4.16659M10 7.49992V10.8333L12.5 12.4999" stroke="white" stroke-linecap="round" stroke-linejoin="round"/>
</svg>
