<svg width="20" height="20" viewBox="0 0 20 20" fill="none" xmlns="http://www.w3.org/2000/svg">
<path d="M7.49984 9.58341C7.72085 9.58341 7.93281 9.49562 8.08909 9.33934C8.24537 9.18306 8.33317 8.9711 8.33317 8.75008C8.33317 8.52907 8.24537 8.31711 8.08909 8.16083C7.93281 8.00455 7.72085 7.91675 7.49984 7.91675C7.27882 7.91675 7.06686 8.00455 6.91058 8.16083C6.7543 8.31711 6.6665 8.52907 6.6665 8.75008C6.6665 8.9711 6.7543 9.18306 6.91058 9.33934C7.06686 9.49562 7.27882 9.58341 7.49984 9.58341ZM9.1665 8.75008C9.1665 8.52907 9.2543 8.31711 9.41058 8.16083C9.56686 8.00455 9.77882 7.91675 9.99984 7.91675H12.4998C12.7209 7.91675 12.9328 8.00455 13.0891 8.16083C13.2454 8.31711 13.3332 8.52907 13.3332 8.75008C13.3332 8.9711 13.2454 9.18306 13.0891 9.33934C12.9328 9.49562 12.7209 9.58341 12.4998 9.58341H9.99984C9.77882 9.58341 9.56686 9.49562 9.41058 9.33934C9.2543 9.18306 9.1665 8.9711 9.1665 8.75008ZM9.99984 10.4167C9.77882 10.4167 9.56686 10.5045 9.41058 10.6608C9.2543 10.8171 9.1665 11.0291 9.1665 11.2501C9.1665 11.4711 9.2543 11.6831 9.41058 11.8393C9.56686 11.9956 9.77882 12.0834 9.99984 12.0834H12.4998C12.7209 12.0834 12.9328 11.9956 13.0891 11.8393C13.2454 11.6831 13.3332 11.4711 13.3332 11.2501C13.3332 11.0291 13.2454 10.8171 13.0891 10.6608C12.9328 10.5045 12.7209 10.4167 12.4998 10.4167H9.99984ZM9.99984 12.9167C9.77882 12.9167 9.56686 13.0045 9.41058 13.1608C9.2543 13.3171 9.1665 13.5291 9.1665 13.7501C9.1665 13.9711 9.2543 14.1831 9.41058 14.3393C9.56686 14.4956 9.77882 14.5834 9.99984 14.5834H12.4998C12.7209 14.5834 12.9328 14.4956 13.0891 14.3393C13.2454 14.1831 13.3332 13.9711 13.3332 13.7501C13.3332 13.5291 13.2454 13.3171 13.0891 13.1608C12.9328 13.0045 12.7209 12.9167 12.4998 12.9167H9.99984ZM8.33317 11.2501C8.33317 11.4711 8.24537 11.6831 8.08909 11.8393C7.93281 11.9956 7.72085 12.0834 7.49984 12.0834C7.27882 12.0834 7.06686 11.9956 6.91058 11.8393C6.7543 11.6831 6.6665 11.4711 6.6665 11.2501C6.6665 11.0291 6.7543 10.8171 6.91058 10.6608C7.06686 10.5045 7.27882 10.4167 7.49984 10.4167C7.72085 10.4167 7.93281 10.5045 8.08909 10.6608C8.24537 10.8171 8.33317 11.0291 8.33317 11.2501ZM7.49984 14.5834C7.72085 14.5834 7.93281 14.4956 8.08909 14.3393C8.24537 14.1831 8.33317 13.9711 8.33317 13.7501C8.33317 13.5291 8.24537 13.3171 8.08909 13.1608C7.93281 13.0045 7.72085 12.9167 7.49984 12.9167C7.27882 12.9167 7.06686 13.0045 6.91058 13.1608C6.7543 13.3171 6.6665 13.5291 6.6665 13.7501C6.6665 13.9711 6.7543 14.1831 6.91058 14.3393C7.06686 14.4956 7.27882 14.5834 7.49984 14.5834Z" fill="#083ED1"/>
<path d="M7.49992 1.66675C7.2789 1.66675 7.06694 1.75455 6.91066 1.91083C6.75438 2.06711 6.66659 2.27907 6.66659 2.50008H4.99992C4.55789 2.50008 4.13397 2.67568 3.82141 2.98824C3.50885 3.3008 3.33325 3.72472 3.33325 4.16675V16.6667C3.33325 17.1088 3.50885 17.5327 3.82141 17.8453C4.13397 18.1578 4.55789 18.3334 4.99992 18.3334H14.9999C15.4419 18.3334 15.8659 18.1578 16.1784 17.8453C16.491 17.5327 16.6666 17.1088 16.6666 16.6667V4.16675C16.6666 3.72472 16.491 3.3008 16.1784 2.98824C15.8659 2.67568 15.4419 2.50008 14.9999 2.50008H13.3333C13.3333 2.27907 13.2455 2.06711 13.0892 1.91083C12.9329 1.75455 12.7209 1.66675 12.4999 1.66675H7.49992ZM13.3333 4.16675H14.9999V16.6667H4.99992V4.16675H6.66659V5.00008C6.66659 5.2211 6.75438 5.43306 6.91066 5.58934C7.06694 5.74562 7.2789 5.83342 7.49992 5.83342H12.4999C12.7209 5.83342 12.9329 5.74562 13.0892 5.58934C13.2455 5.43306 13.3333 5.2211 13.3333 5.00008V4.16675ZM8.33325 4.16675V3.33341H11.6666V4.16675H8.33325Z" fill="#083ED1"/>
</svg>
