<svg width="20" height="20" viewBox="0 0 20 20" fill="none" xmlns="http://www.w3.org/2000/svg">
<path d="M9.66658 7.49992C9.39044 7.49992 9.16658 7.27606 9.16658 6.99992V4.99992H7.16658C6.89044 4.99992 6.66658 4.77606 6.66658 4.49992V3.83325C6.66658 3.55711 6.89044 3.33325 7.16658 3.33325H9.16658V1.33325C9.16658 1.05711 9.39044 0.833252 9.66658 0.833252H10.3333C10.6094 0.833252 10.8333 1.05711 10.8333 1.33325V3.33325H12.8333C13.1094 3.33325 13.3333 3.55711 13.3333 3.83325V4.49992C13.3333 4.77606 13.1094 4.99992 12.8333 4.99992H10.8333V6.99992C10.8333 7.27606 10.6094 7.49992 10.3333 7.49992H9.66658ZM5.83325 18.3333C5.37492 18.3333 4.9827 18.1702 4.65658 17.8441C4.33047 17.518 4.16714 17.1255 4.16659 16.6666C4.16603 16.2077 4.32936 15.8155 4.65658 15.4899C4.98381 15.1644 5.37603 15.001 5.83325 14.9999C6.29047 14.9988 6.68297 15.1621 7.01075 15.4899C7.33853 15.8177 7.50159 16.2099 7.49992 16.6666C7.49825 17.1233 7.3352 17.5158 7.01075 17.8441C6.68631 18.1724 6.29381 18.3355 5.83325 18.3333ZM14.1666 18.3333C13.7083 18.3333 13.316 18.1702 12.9899 17.8441C12.6638 17.518 12.5005 17.1255 12.4999 16.6666C12.4994 16.2077 12.6627 15.8155 12.9899 15.4899C13.3171 15.1644 13.7094 15.001 14.1666 14.9999C14.6238 14.9988 15.0163 15.1621 15.3441 15.4899C15.6719 15.8177 15.8349 16.2099 15.8333 16.6666C15.8316 17.1233 15.6685 17.5158 15.3441 17.8441C15.0196 18.1724 14.6271 18.3355 14.1666 18.3333ZM1.66658 3.33325C1.20635 3.33325 0.833252 2.96016 0.833252 2.49992C0.833252 2.03968 1.20635 1.66659 1.66659 1.66659H2.92875C3.31563 1.66659 3.6678 1.88974 3.833 2.23958L7.10408 9.16658H12.9374L15.95 3.75932C16.0966 3.4963 16.3741 3.33325 16.6751 3.33325C17.3075 3.33325 17.7076 4.01202 17.4014 4.56525L14.4166 9.95825C14.2638 10.236 14.0591 10.4513 13.8024 10.6041C13.5458 10.7569 13.2644 10.8333 12.9583 10.8333H6.74992L5.83325 12.4999H15.8333V14.1666H5.83325C5.20825 14.1666 4.73242 13.8958 4.40575 13.3541C4.07909 12.8124 4.06881 12.2638 4.37492 11.7083L5.49992 9.66658L2.49992 3.33325H1.66658Z" fill="#00A511"/>
</svg>
