<svg width="20" height="20" viewBox="0 0 20 20" fill="none" xmlns="http://www.w3.org/2000/svg">
<path d="M8.84351 9.10929L9.19107 9.37429L9.97937 9.97532L11.2894 8.79158L11.6763 8.44198L12.0094 8.84321L13.0975 10.1541L13.6677 9.8729V8.24732C13.6677 7.42365 13.1567 6.87821 12.5477 6.51025C12.2466 6.32834 11.9413 6.20356 11.7088 6.12421C11.5934 6.08483 11.4981 6.05738 11.4332 6.04011C11.4008 6.03149 11.3762 6.02544 11.3605 6.02175L11.344 6.01796L11.3418 6.01747L11.3416 6.01741L11.3413 6.01735L11.3412 6.01733L10.9448 5.93418V5.52819V2.43621V2.16675H9.06809V2.43621V5.52819V5.93418L8.84351 9.10929ZM8.84351 9.10929L8.53441 9.4183M8.84351 9.10929L8.53441 9.4183M8.53441 9.4183L7.78724 10.1653L6.34521 9.42092V8.24732C6.34521 7.42365 6.85622 6.87821 7.46522 6.51025C7.76629 6.32834 8.07162 6.20356 8.30413 6.12421C8.41952 6.08483 8.51478 6.05738 8.57968 6.04011C8.61208 6.03149 8.63675 6.02544 8.6524 6.02175L8.66888 6.01796L8.67108 6.01747L8.67135 6.01741M8.53441 9.4183L8.67135 6.01741M8.67135 6.01741L8.67163 6.01735M8.67135 6.01741L8.67163 6.01735M8.67163 6.01735L8.67171 6.01733L8.67163 6.01735Z" stroke="#080808"/>
<path d="M6.33707 11.5368L7.64495 12.2119L7.96953 12.3795L8.22783 12.1212L8.92417 11.4249L9.6951 12.0128L10.0254 12.2647L10.3335 11.9862L11.5648 10.8737L12.5719 12.0871L12.8239 12.3908L13.1778 12.2162L13.6596 11.9786L13.6599 17.0539L13.6599 17.0815L13.6624 17.1043C13.6626 17.107 13.663 17.1131 13.6632 17.1223C13.6637 17.1416 13.6636 17.1727 13.6603 17.2114C13.6535 17.2915 13.6344 17.3884 13.5915 17.4783C13.5509 17.5634 13.4891 17.6433 13.3863 17.7055C13.2817 17.7688 13.1027 17.8331 12.7983 17.8331H10.0056H9.99139H7.19867C6.89428 17.8331 6.71525 17.7688 6.61061 17.7055C6.5078 17.6433 6.44602 17.5634 6.40543 17.4783C6.36254 17.3884 6.34342 17.2915 6.33661 17.2114C6.33331 17.1727 6.33321 17.1416 6.33373 17.1223C6.33398 17.1131 6.33435 17.107 6.33454 17.1043L6.33707 17.0815V17.0539V11.5368ZM6.33461 17.1033L6.33456 17.104L6.33461 17.1033Z" stroke="#080808"/>
</svg>
