<svg width="20" height="20" viewBox="0 0 20 20" fill="none" xmlns="http://www.w3.org/2000/svg">
<path d="M9.99364 10.803L13.9084 9.09238V3.93566L9.99364 5.64654V10.803ZM12.3117 13.8485C12.3117 14.0476 12.1501 14.2092 11.951 14.2092C11.752 14.2092 11.5904 14.0476 11.5904 13.8485V12.6005L9.99364 11.9028V17.0597L13.9084 18.7706V13.6137L12.3117 12.9159V13.8485ZM11.951 11.9738L15.6897 10.3401L14.2691 9.71929L10.5305 11.353L11.951 11.9738ZM16.5874 10.7324L12.8488 12.3662L14.2691 12.987L18.0077 11.353L16.5874 10.7324ZM14.6298 9.09238L16.7266 10.0089L16.7347 10.0123L19.0216 11.0116C19.1637 11.06 19.2659 11.1946 19.2659 11.353V17.2943C19.2645 17.4331 19.1839 17.5652 19.0489 17.6239L14.4127 19.6501C14.3244 19.6884 14.2207 19.6915 14.1255 19.6501L9.63297 17.6867L5.14041 19.6501C5.05206 19.6884 4.94839 19.6915 4.85323 19.6501L0.244584 17.636C0.102458 17.5876 0 17.4528 0 17.2943V11.353C0.000730102 11.3238 0.00462397 11.2941 0.0121684 11.2649L0.0128985 11.2625L0.0216597 11.2338L0.0231199 11.2296L0.0240934 11.227L0.0257969 11.2226L0.0275005 11.2182L0.0292041 11.2138L0.031151 11.2094L0.0328546 11.2055L0.0350449 11.2009L0.0365051 11.1978L0.0389388 11.1926L0.040399 11.19L0.0430761 11.1846L0.0442929 11.1824L0.0474567 11.1766L0.0520806 11.1685L0.0567047 11.161L0.0615719 11.1535L0.0671695 11.1457L0.0720367 11.1389L0.0773908 11.1318L0.0829883 11.1247L0.0885858 11.1182L0.0941832 11.1116L0.100267 11.1053L0.106352 11.0989L0.112679 11.0929L0.119007 11.0868L0.125578 11.0809L0.132392 11.0753L0.139206 11.0697L0.146264 11.0646L0.153321 11.0595L0.160379 11.0546L0.16768 11.0498L0.174981 11.0454L0.182526 11.041L0.19007 11.0366L0.19226 11.0354L0.197614 11.0327L0.200291 11.0313L0.205402 11.0289L0.208566 11.0274L0.21319 11.0252L0.217084 11.0235L0.221221 11.0218L4.63615 9.09238V3.38565C4.63688 3.35645 4.64077 3.32676 4.64832 3.29755L4.64905 3.29512L4.65781 3.2664L4.65927 3.26226L4.66024 3.25959L4.66195 3.25521L4.66365 3.25083L4.66535 3.24645L4.6673 3.24207L4.669 3.23817L4.67119 3.23355L4.67265 3.23038L4.67509 3.22527L4.67655 3.2226L4.67922 3.21724L4.68044 3.21505L4.68361 3.20921L4.68823 3.20118L4.69285 3.19364L4.69772 3.18609L4.70332 3.1783L4.70819 3.17149L4.71354 3.16443L4.71914 3.15737L4.72473 3.1508L4.73033 3.14423L4.73642 3.1379L4.7425 3.13158L4.74883 3.12549L4.75516 3.11941L4.76173 3.11357L4.76854 3.10797L4.77535 3.10237L4.78241 3.09726L4.78947 3.09215L4.79653 3.08728L4.80383 3.08242L4.81113 3.07804L4.81867 3.07365L4.82622 3.06927L4.82841 3.06806L4.83376 3.06538L4.83644 3.06392L4.84155 3.06149L4.84471 3.06003L4.84934 3.05784L4.85323 3.05613L4.85737 3.05443L9.48938 1.02985C9.57772 0.991646 9.6814 0.988482 9.77656 1.02985L14.3854 3.04421C14.5276 3.09264 14.6298 3.22722 14.6298 3.38565V9.09238ZM14.6298 13.6139V18.7706L18.5446 17.0597V11.903L14.6298 13.6139ZM3.03942 13.8485C3.03942 14.0476 2.87782 14.2092 2.67874 14.2092C2.47967 14.2092 2.31807 14.0476 2.31807 13.8485V12.6008L0.721341 11.903V17.0597L4.63615 18.7706V13.6137L3.03942 12.9159V13.8485ZM2.67874 11.9738L6.41735 10.3401L4.99682 9.71929L1.25821 11.353L2.67874 11.9738ZM7.31514 10.7324L3.57653 12.3662L4.99682 12.987L8.73543 11.353L7.31514 10.7324ZM5.35749 13.6139V18.7706L9.2723 17.0597V11.903L5.35749 13.6139ZM7.67556 5.8809C7.67556 6.07997 7.51397 6.24157 7.31489 6.24157C7.11582 6.24157 6.95422 6.07997 6.95422 5.8809V4.6334L5.35749 3.93566V9.09238L9.2723 10.803V5.64629L7.67556 4.94856V5.8809ZM7.31489 4.00648L11.0537 2.37251L9.63297 1.75168L5.89436 3.38565L7.31489 4.00648ZM11.9513 2.76482L8.21243 4.39879L9.63297 5.01962L13.3716 3.38565L11.9513 2.76482Z" fill="white"/>
</svg>
