<svg width="20" height="20" viewBox="0 0 20 20" fill="none" xmlns="http://www.w3.org/2000/svg">
<path d="M8.3335 17.0833C9.02385 17.0833 9.5835 16.5236 9.5835 15.8333C9.5835 15.1429 9.02385 14.5833 8.3335 14.5833C7.64314 14.5833 7.0835 15.1429 7.0835 15.8333C7.0835 16.5236 7.64314 17.0833 8.3335 17.0833Z" stroke="white"/>
<path d="M14.1667 17.0833C14.8571 17.0833 15.4167 16.5236 15.4167 15.8333C15.4167 15.1429 14.8571 14.5833 14.1667 14.5833C13.4764 14.5833 12.9167 15.1429 12.9167 15.8333C12.9167 16.5236 13.4764 17.0833 14.1667 17.0833Z" stroke="white"/>
<path d="M2.91675 3.33325H4.58341L7.50341 12.4999H14.1667" stroke="white" stroke-linecap="round" stroke-linejoin="round"/>
<path d="M6.85333 10.4165L5.25 5.4165H15.6725C15.7386 5.41642 15.8037 5.43205 15.8625 5.46209C15.9213 5.49213 15.9722 5.53573 16.0109 5.58929C16.0495 5.64285 16.0749 5.70484 16.0849 5.77013C16.0949 5.83543 16.0892 5.90217 16.0683 5.96484L14.6792 10.1315C14.6515 10.2144 14.5985 10.2866 14.5276 10.3377C14.4568 10.3889 14.3716 10.4164 14.2842 10.4165H6.85333Z" stroke="white" stroke-linecap="round" stroke-linejoin="round"/>
</svg>
