<svg width="20" height="20" viewBox="0 0 20 20" fill="none" xmlns="http://www.w3.org/2000/svg">
<path d="M16.0984 11.2501H12.8692C12.4413 11.2501 12.0308 11.4195 11.7276 11.7214C11.4243 12.0233 11.2529 12.433 11.2509 12.8609V16.0901C11.2509 16.5193 11.4214 16.9309 11.7249 17.2344C12.0284 17.5379 12.44 17.7084 12.8692 17.7084H16.0984C16.5262 17.7062 16.9357 17.5347 17.2374 17.2315C17.5391 16.9282 17.7084 16.5179 17.7084 16.0901V12.8609C17.7084 12.4339 17.5388 12.0244 17.2369 11.7225C16.9349 11.4205 16.5254 11.2509 16.0984 11.2509M7.13092 11.2501H3.90175C3.47391 11.2525 3.06442 11.4242 2.76275 11.7276C2.46107 12.0309 2.29174 12.4414 2.29175 12.8692V16.0984C2.29175 16.5254 2.46137 16.9349 2.76331 17.2369C3.06524 17.5388 3.47475 17.7084 3.90175 17.7084H7.13092C7.55868 17.7084 7.96906 17.5391 8.27231 17.2374C8.57557 16.9357 8.74705 16.5262 8.74925 16.0984V12.8692C8.74925 12.44 8.57875 12.0284 8.27525 11.7249C7.97175 11.4214 7.56012 11.2509 7.13092 11.2509M7.13092 2.29175H3.90175C3.69032 2.29175 3.48096 2.33339 3.28563 2.4143C3.09029 2.49521 2.91281 2.6138 2.76331 2.76331C2.6138 2.91281 2.49521 3.09029 2.4143 3.28563C2.33339 3.48096 2.29175 3.69032 2.29175 3.90175V7.13092C2.29174 7.55868 2.4611 7.96906 2.7628 8.27231C3.06449 8.57557 3.47399 8.74705 3.90175 8.74925H7.13092C7.56012 8.74925 7.97175 8.57875 8.27525 8.27525C8.57875 7.97175 8.74925 7.56012 8.74925 7.13092V3.90175C8.74705 3.47399 8.57557 3.06449 8.27231 2.7628C7.96906 2.4611 7.55868 2.29174 7.13092 2.29175ZM16.0984 2.29175H12.8692C12.4415 2.29174 12.0311 2.4611 11.7279 2.7628C11.4246 3.06449 11.2531 3.47399 11.2509 3.90175V7.13092C11.2511 7.56006 11.4217 7.97156 11.7252 8.27501C12.0286 8.57845 12.4401 8.74903 12.8692 8.74925H16.0984C16.5262 8.74705 16.9357 8.57557 17.2374 8.27231C17.5391 7.96906 17.7084 7.55868 17.7084 7.13092V3.90175C17.7084 3.47475 17.5388 3.06524 17.2369 2.76331C16.9349 2.46137 16.5254 2.29175 16.0984 2.29175Z" stroke="white" stroke-linecap="round" stroke-linejoin="round"/>
</svg>
