<svg width="20" height="20" viewBox="0 0 20 20" fill="none" xmlns="http://www.w3.org/2000/svg">
<path d="M4.16667 17.5C3.70833 17.5 3.31611 17.3369 2.99 17.0108C2.66389 16.6847 2.50056 16.2922 2.5 15.8333V4.16667C2.5 3.70833 2.66333 3.31611 2.99 2.99C3.31667 2.66389 3.70889 2.50056 4.16667 2.5H15.8333C16.2917 2.5 16.6842 2.66333 17.0108 2.99C17.3375 3.31667 17.5006 3.70889 17.5 4.16667V15.8333C17.5 16.2917 17.3369 16.6842 17.0108 17.0108C16.6847 17.3375 16.2922 17.5006 15.8333 17.5H4.16667ZM14.3958 15.8333H15.8333V14.3958L14.3958 15.8333ZM4.875 15.8333H6.39583L8.89583 13.3333H10.6667L8.16667 15.8333H9.5L12 13.3333H13.7708L11.2708 15.8333H12.625L15.125 13.3333H15.8333V4.16667H4.16667V14.7708L5.60417 13.3333H7.375L4.875 15.8333ZM6.72855 11.316C6.53305 11.5099 6.2176 11.5093 6.02291 11.3146L5.56189 10.8536C5.36662 10.6583 5.36662 10.3417 5.56189 10.1464L8.54228 7.16605C8.73754 6.97079 9.05412 6.97079 9.24939 7.16605L10.2089 8.12561C10.4042 8.32088 10.7208 8.32088 10.9161 8.12561L13.2714 5.77022C13.4667 5.57496 13.7833 5.57496 13.9786 5.77022L14.439 6.23065C14.6339 6.42557 14.6343 6.74148 14.4398 6.93688L10.9161 10.478C10.7209 10.6741 10.4037 10.6745 10.2081 10.4789L9.24792 9.51876C9.05323 9.32407 8.73778 9.32341 8.54229 9.51729L6.72855 11.316Z" fill="#C2780E"/>
</svg>
