<svg width="20" height="20" viewBox="0 0 20 20" fill="none" xmlns="http://www.w3.org/2000/svg">
<path d="M6.66671 5.83333V12.5C6.66671 12.942 6.8423 13.366 7.15486 13.6785C7.46742 13.9911 7.89135 14.1667 8.33337 14.1667H13.3334M6.66671 5.83333V4.16667C6.66671 3.72464 6.8423 3.30072 7.15486 2.98816C7.46742 2.67559 7.89135 2.5 8.33337 2.5H12.155C12.376 2.50005 12.588 2.58788 12.7442 2.74417L16.4225 6.4225C16.5788 6.57874 16.6667 6.79067 16.6667 7.01167V12.5C16.6667 12.942 16.4911 13.366 16.1786 13.6785C15.866 13.9911 15.4421 14.1667 15 14.1667H13.3334M6.66671 5.83333H5.00004C4.55801 5.83333 4.13409 6.00893 3.82153 6.32149C3.50897 6.63405 3.33337 7.05797 3.33337 7.5V15.8333C3.33337 16.2754 3.50897 16.6993 3.82153 17.0118C4.13409 17.3244 4.55801 17.5 5.00004 17.5H11.6667C12.1087 17.5 12.5327 17.3244 12.8452 17.0118C13.1578 16.6993 13.3334 16.2754 13.3334 15.8333V14.1667" stroke="#919297" stroke-width="1.5" stroke-linecap="round" stroke-linejoin="round"/>
</svg>
