<svg width="20" height="20" viewBox="0 0 20 20" fill="none" xmlns="http://www.w3.org/2000/svg">
<path d="M6.66659 13.3333V9.16659M9.99992 13.3333V6.66659M13.3333 13.3333V11.6666M14.9999 3.33325H4.99992C4.55789 3.33325 4.13397 3.50885 3.82141 3.82141C3.50885 4.13397 3.33325 4.55789 3.33325 4.99992V14.9999C3.33325 15.4419 3.50885 15.8659 3.82141 16.1784C4.13397 16.491 4.55789 16.6666 4.99992 16.6666H14.9999C15.4419 16.6666 15.8659 16.491 16.1784 16.1784C16.491 15.8659 16.6666 15.4419 16.6666 14.9999V4.99992C16.6666 4.55789 16.491 4.13397 16.1784 3.82141C15.8659 3.50885 15.4419 3.33325 14.9999 3.33325Z" stroke="white" stroke-linecap="round" stroke-linejoin="round"/>
</svg>
