<svg width="20" height="20" viewBox="0 0 20 20" fill="none" xmlns="http://www.w3.org/2000/svg">
<path fill-rule="evenodd" clip-rule="evenodd" d="M3.33398 3.33341C3.33398 2.89139 3.50958 2.46746 3.82214 2.1549C4.1347 1.84234 4.55862 1.66675 5.00065 1.66675H15.0007C15.4427 1.66675 15.8666 1.84234 16.1792 2.1549C16.4917 2.46746 16.6673 2.89139 16.6673 3.33341V16.6667C16.6673 17.1088 16.4917 17.5327 16.1792 17.8453C15.8666 18.1578 15.4427 18.3334 15.0007 18.3334H5.00065C4.55862 18.3334 4.1347 18.1578 3.82214 17.8453C3.50958 17.5327 3.33398 17.1088 3.33398 16.6667V3.33341ZM15.0007 3.33341H5.00065V16.6667H15.0007V3.33341ZM9.62398 5.63591C9.78021 5.79219 9.86797 6.00411 9.86797 6.22508C9.86797 6.44605 9.78021 6.65798 9.62398 6.81425L8.00315 8.43341C7.80783 8.62857 7.54301 8.73819 7.2669 8.73819C6.99079 8.73819 6.72598 8.62857 6.53065 8.43341L5.79398 7.69675C5.71439 7.61988 5.65091 7.52792 5.60723 7.42625C5.56356 7.32458 5.54057 7.21523 5.53961 7.10458C5.53865 6.99393 5.55973 6.8842 5.60163 6.78179C5.64353 6.67937 5.70541 6.58633 5.78366 6.50809C5.8619 6.42984 5.95494 6.36796 6.05736 6.32606C6.15977 6.28416 6.2695 6.26308 6.38015 6.26404C6.4908 6.265 6.60015 6.28799 6.70182 6.33166C6.80349 6.37534 6.89545 6.43882 6.97232 6.51841L7.26732 6.81341L8.44565 5.63508C8.60192 5.47886 8.81385 5.39109 9.03482 5.39109C9.25579 5.39109 9.46771 5.47969 9.62398 5.63591ZM10.834 7.50008C10.834 7.27907 10.9218 7.06711 11.0781 6.91083C11.2343 6.75455 11.4463 6.66675 11.6673 6.66675H13.334C13.555 6.66675 13.767 6.75455 13.9232 6.91083C14.0795 7.06711 14.1673 7.27907 14.1673 7.50008C14.1673 7.7211 14.0795 7.93306 13.9232 8.08934C13.767 8.24562 13.555 8.33342 13.334 8.33342H11.6673C11.4463 8.33342 11.2343 8.24562 11.0781 8.08934C10.9218 7.93306 10.834 7.7211 10.834 7.50008ZM5.83398 11.2501C5.83398 10.9186 5.96568 10.6006 6.2001 10.3662C6.43452 10.1318 6.75246 10.0001 7.08398 10.0001H8.75065C9.08217 10.0001 9.40011 10.1318 9.63453 10.3662C9.86896 10.6006 10.0007 10.9186 10.0007 11.2501V12.9167C10.0007 13.2483 9.86896 13.5662 9.63453 13.8006C9.40011 14.0351 9.08217 14.1667 8.75065 14.1667H7.08398C6.75246 14.1667 6.43452 14.0351 6.2001 13.8006C5.96568 13.5662 5.83398 13.2483 5.83398 12.9167V11.2501ZM7.50065 11.6667V12.5001H8.33398V11.6667H7.50065ZM10.834 12.0834C10.834 11.8624 10.9218 11.6504 11.0781 11.4942C11.2343 11.3379 11.4463 11.2501 11.6673 11.2501H13.334C13.555 11.2501 13.767 11.3379 13.9232 11.4942C14.0795 11.6504 14.1673 11.8624 14.1673 12.0834C14.1673 12.3044 14.0795 12.5164 13.9232 12.6727C13.767 12.829 13.555 12.9167 13.334 12.9167H11.6673C11.4463 12.9167 11.2343 12.829 11.0781 12.6727C10.9218 12.5164 10.834 12.3044 10.834 12.0834Z" fill="#080808"/>
</svg>
