<svg width="20" height="21" viewBox="0 0 20 21" fill="none" xmlns="http://www.w3.org/2000/svg">
<path d="M17.5 18.0002L13.8809 14.381M13.8809 14.381C14.5 13.7619 14.991 13.027 15.3261 12.2181C15.6611 11.4093 15.8336 10.5423 15.8336 9.66684C15.8336 8.79134 15.6611 7.92441 15.3261 7.11555C14.991 6.30669 14.5 5.57174 13.8809 4.95267C13.2618 4.3336 12.5269 3.84252 11.718 3.50748C10.9091 3.17244 10.0422 3 9.16672 3C8.29121 3 7.42429 3.17244 6.61543 3.50748C5.80657 3.84252 5.07162 4.3336 4.45255 4.95267C3.20227 6.20295 2.49988 7.89868 2.49988 9.66684C2.49988 11.435 3.20227 13.1307 4.45255 14.381C5.70282 15.6313 7.39856 16.3337 9.16672 16.3337C10.9349 16.3337 12.6306 15.6313 13.8809 14.381Z" stroke="#080808" stroke-width="1.5" stroke-linecap="round" stroke-linejoin="round"/>
</svg>
