<svg width="20" height="20" viewBox="0 0 20 20" fill="none" xmlns="http://www.w3.org/2000/svg">
<path d="M7.45339 7.94591L7.09339 3.32699C7.42005 3.29997 7.67672 3.07835 7.67672 2.80808V2.39997C7.68005 1.82159 7.10005 1.35132 6.38672 1.35132H4.72005C4.00672 1.35132 3.42672 1.82159 3.42672 2.39997V2.80808C3.42672 3.08105 3.68339 3.30267 4.01005 3.32699L3.65672 7.94321C2.47339 8.19997 1.63672 9.01889 1.63672 9.95943V17.1594C1.63672 17.9783 2.52005 18.6459 3.60672 18.6459H7.49672C8.58672 18.6459 9.47005 17.9783 9.47005 17.1594V9.96213C9.47005 9.02159 8.63672 8.20267 7.45339 7.94591ZM6.47339 5.79186C6.40339 5.81078 6.33339 5.8297 6.26005 5.84321C6.23339 5.84862 6.21005 5.85402 6.18339 5.85943C6.09339 5.87564 6.00672 5.88916 5.91339 5.89726C5.90005 5.89726 5.89005 5.89997 5.88005 5.90267C5.66339 5.92159 5.44339 5.92159 5.22672 5.90267C5.21672 5.90267 5.20672 5.89997 5.20005 5.89997C5.10672 5.89186 5.01339 5.87835 4.92339 5.86213C4.90005 5.85672 4.88005 5.85402 4.85672 5.84862C4.78005 5.8324 4.70339 5.81348 4.63005 5.79456C4.60339 5.78645 4.57672 5.77835 4.55005 5.77024C4.52672 5.76213 4.50339 5.75132 4.47672 5.74321L4.66339 3.3351H6.45339L6.64005 5.74321C6.61672 5.75132 6.59672 5.75943 6.57339 5.76753C6.53672 5.77294 6.50339 5.78375 6.47339 5.79186ZM4.07339 2.39997C4.07339 2.11078 4.36339 1.87564 4.72005 1.87564H6.38672C6.74339 1.87564 7.03339 2.11078 7.03339 2.39997V2.80808H4.07339V2.39997ZM8.82339 13.6946H7.70672C7.58339 13.6946 7.47339 13.7513 7.41672 13.8378C7.06005 14.4162 6.34339 14.7756 5.55005 14.7756C4.75672 14.7756 4.04339 14.4162 3.68339 13.8378C3.63005 13.7486 3.51672 13.6946 3.39339 13.6946H2.28339V12.4729H3.40005C3.52339 12.4729 3.63339 12.4162 3.69005 12.3297C4.04672 11.7513 4.76339 11.3919 5.55672 11.3919C6.35005 11.3919 7.06339 11.7513 7.42339 12.3297C7.47672 12.4189 7.59005 12.4729 7.71339 12.4729H8.83005V13.6946H8.82339ZM8.82339 17.1594C8.82339 17.6919 8.22672 18.1243 7.49672 18.1243H3.60672C2.87672 18.1243 2.28339 17.6919 2.28339 17.1594V14.2189H3.21005C3.70339 14.8892 4.58339 15.3 5.55672 15.3C6.53005 15.3 7.41005 14.8892 7.90339 14.2189H8.83005V17.1594H8.82339ZM8.82339 11.9486H7.90005C7.40672 11.2783 6.52672 10.8675 5.55339 10.8675C4.58005 10.8675 3.70005 11.2783 3.20672 11.9486H2.28339V9.96213C2.28339 9.21078 3.01339 8.55943 4.02005 8.41618C4.16672 8.39456 4.27672 8.29456 4.28672 8.17564L4.43005 6.29456C4.52672 6.32159 4.62339 6.34321 4.72339 6.36483C4.74005 6.36753 4.76005 6.37024 4.77672 6.37294C4.87339 6.39186 4.97339 6.40537 5.07339 6.41618C5.11339 6.42159 5.15339 6.42429 5.19672 6.42699C5.29339 6.4351 5.39339 6.44051 5.49005 6.44051C5.51005 6.44051 5.53005 6.44321 5.55005 6.44321C5.57005 6.44321 5.58672 6.44051 5.60672 6.44051C5.70672 6.44051 5.81005 6.4351 5.91005 6.42699C5.95005 6.42429 5.98672 6.41889 6.02339 6.41618C6.13005 6.40537 6.23672 6.38916 6.34005 6.37024C6.35005 6.36753 6.36339 6.36753 6.37339 6.36483C6.47339 6.34591 6.57339 6.32159 6.67005 6.29456L6.81672 8.17564C6.82672 8.29726 6.93672 8.39726 7.08339 8.41618C8.09005 8.56213 8.82005 9.21348 8.82005 9.96213V11.9486H8.82339Z" fill="white"/>
<path d="M17.9965 8.46207C17.9532 8.05396 17.5365 7.74585 17.0299 7.74585H12.6165C12.1165 7.74585 11.6899 8.06207 11.6499 8.46747L11.3099 11.7891C11.2432 12.5891 11.5765 13.3513 12.2532 13.9377C12.8532 14.4594 13.6465 14.7702 14.5099 14.8323V18.0134H12.8865C12.7065 18.0134 12.5632 18.1296 12.5632 18.2756C12.5632 18.4215 12.7065 18.5377 12.8865 18.5377H16.7799C16.9599 18.5377 17.1032 18.4215 17.1032 18.2756C17.1032 18.1296 16.9599 18.0134 16.7799 18.0134H15.1565V14.8323C16.0199 14.7702 16.8132 14.4594 17.4132 13.9377C18.0865 13.3513 18.4232 12.5891 18.3565 11.7837L17.9965 8.46207ZM12.6165 8.27017H17.0299C17.1999 8.27017 17.3365 8.37288 17.3532 8.50801L17.5365 10.2107C17.5065 10.208 17.4699 10.208 17.4399 10.2053C17.4065 10.2026 17.3765 10.1999 17.3432 10.1999C17.2665 10.1972 17.1865 10.1945 17.1065 10.1918C17.0765 10.1918 17.0499 10.1891 17.0199 10.1891C16.9065 10.1891 16.7899 10.1918 16.6665 10.1972C16.6499 10.1972 16.6299 10.1999 16.6132 10.1999C16.5065 10.2053 16.3965 10.2134 16.2832 10.2269C16.2399 10.2323 16.1965 10.2377 16.1532 10.2431C16.0599 10.254 15.9632 10.2675 15.8632 10.2837C15.8132 10.2918 15.7632 10.2999 15.7132 10.308C15.6099 10.3269 15.5032 10.3486 15.3932 10.3702C15.3465 10.381 15.2999 10.3891 15.2532 10.3999C15.0965 10.435 14.9365 10.4756 14.7699 10.5242C14.6132 10.5702 14.4599 10.6053 14.3099 10.6377C14.2632 10.6486 14.2199 10.654 14.1732 10.6648C14.0732 10.6837 13.9732 10.7026 13.8765 10.7188C13.8265 10.7269 13.7765 10.7323 13.7265 10.7377C13.6399 10.7486 13.5532 10.7594 13.4732 10.7648C13.4232 10.7702 13.3765 10.7729 13.3299 10.7756C13.2499 10.781 13.1732 10.7837 13.0999 10.7864C13.0565 10.7864 13.0099 10.7891 12.9665 10.7891C12.8932 10.7891 12.8199 10.7864 12.7499 10.7837C12.7132 10.781 12.6732 10.781 12.6365 10.7783C12.5632 10.7729 12.4899 10.7675 12.4199 10.7594C12.3932 10.7567 12.3632 10.754 12.3365 10.7513C12.2432 10.7404 12.1565 10.7269 12.0732 10.7107L12.2999 8.51071C12.3099 8.37288 12.4465 8.27017 12.6165 8.27017ZM16.9399 13.581C16.3899 14.0594 15.6399 14.3242 14.8332 14.3242C14.0265 14.3242 13.2765 14.0594 12.7265 13.581C12.1765 13.1026 11.9032 12.4783 11.9565 11.8296L12.0165 11.2404C12.0565 11.2458 12.0999 11.2513 12.1432 11.2567C12.1799 11.2621 12.2165 11.2675 12.2532 11.2729C12.3365 11.2837 12.4232 11.2891 12.5099 11.2972C12.5365 11.2999 12.5565 11.3026 12.5832 11.3026C12.6999 11.3107 12.8232 11.3134 12.9499 11.3134C12.9532 11.3134 12.9565 11.3134 12.9632 11.3134C12.9799 11.3134 13.0032 11.3107 13.0199 11.3107C13.1299 11.3107 13.2432 11.3053 13.3632 11.2999C13.4099 11.2972 13.4565 11.2918 13.5032 11.2891C13.6032 11.281 13.7065 11.2702 13.8132 11.2567C13.8665 11.2513 13.9199 11.2431 13.9765 11.235C14.0865 11.2188 14.1965 11.1999 14.3132 11.1756C14.3665 11.1648 14.4165 11.1567 14.4665 11.1459C14.6332 11.1107 14.8065 11.0675 14.9832 11.0188C15.1365 10.9756 15.2865 10.9377 15.4299 10.9053C15.4765 10.8945 15.5199 10.8864 15.5632 10.8783C15.6599 10.8567 15.7565 10.8377 15.8465 10.8215C15.8965 10.8134 15.9465 10.8053 15.9965 10.7972C16.0765 10.7837 16.1599 10.7729 16.2365 10.7648C16.2865 10.7594 16.3365 10.754 16.3832 10.7486C16.4565 10.7404 16.5265 10.735 16.5965 10.7323C16.6432 10.7296 16.6899 10.7269 16.7332 10.7242C16.7999 10.7215 16.8665 10.7188 16.9299 10.7188C16.9699 10.7188 17.0132 10.7161 17.0532 10.7188C17.1165 10.7188 17.1799 10.7215 17.2399 10.7242C17.2732 10.7269 17.3065 10.7269 17.3399 10.7269C17.4165 10.7323 17.4865 10.7377 17.5532 10.7458C17.5665 10.7458 17.5799 10.7486 17.5899 10.7486L17.7065 11.8269C17.7665 12.4783 17.4932 13.0999 16.9399 13.581Z" fill="white"/>
</svg>
