<svg width="16" height="16" viewBox="0 0 16 16" fill="none" xmlns="http://www.w3.org/2000/svg">
<path d="M5.99967 7.66683C6.17649 7.66683 6.34605 7.59659 6.47108 7.47157C6.5961 7.34654 6.66634 7.17697 6.66634 7.00016C6.66634 6.82335 6.5961 6.65378 6.47108 6.52876C6.34605 6.40373 6.17649 6.3335 5.99967 6.3335C5.82286 6.3335 5.65329 6.40373 5.52827 6.52876C5.40325 6.65378 5.33301 6.82335 5.33301 7.00016C5.33301 7.17697 5.40325 7.34654 5.52827 7.47157C5.65329 7.59659 5.82286 7.66683 5.99967 7.66683ZM7.33301 7.00016C7.33301 6.82335 7.40325 6.65378 7.52827 6.52876C7.65329 6.40373 7.82286 6.3335 7.99967 6.3335H9.99967C10.1765 6.3335 10.3461 6.40373 10.4711 6.52876C10.5961 6.65378 10.6663 6.82335 10.6663 7.00016C10.6663 7.17697 10.5961 7.34654 10.4711 7.47157C10.3461 7.59659 10.1765 7.66683 9.99967 7.66683H7.99967C7.82286 7.66683 7.65329 7.59659 7.52827 7.47157C7.40325 7.34654 7.33301 7.17697 7.33301 7.00016ZM7.99967 8.3335C7.82286 8.3335 7.65329 8.40373 7.52827 8.52876C7.40325 8.65378 7.33301 8.82335 7.33301 9.00016C7.33301 9.17697 7.40325 9.34654 7.52827 9.47157C7.65329 9.59659 7.82286 9.66683 7.99967 9.66683H9.99967C10.1765 9.66683 10.3461 9.59659 10.4711 9.47157C10.5961 9.34654 10.6663 9.17697 10.6663 9.00016C10.6663 8.82335 10.5961 8.65378 10.4711 8.52876C10.3461 8.40373 10.1765 8.3335 9.99967 8.3335H7.99967ZM7.99967 10.3335C7.82286 10.3335 7.65329 10.4037 7.52827 10.5288C7.40325 10.6538 7.33301 10.8234 7.33301 11.0002C7.33301 11.177 7.40325 11.3465 7.52827 11.4716C7.65329 11.5966 7.82286 11.6668 7.99967 11.6668H9.99967C10.1765 11.6668 10.3461 11.5966 10.4711 11.4716C10.5961 11.3465 10.6663 11.177 10.6663 11.0002C10.6663 10.8234 10.5961 10.6538 10.4711 10.5288C10.3461 10.4037 10.1765 10.3335 9.99967 10.3335H7.99967ZM6.66634 9.00016C6.66634 9.17697 6.5961 9.34654 6.47108 9.47157C6.34605 9.59659 6.17649 9.66683 5.99967 9.66683C5.82286 9.66683 5.65329 9.59659 5.52827 9.47157C5.40325 9.34654 5.33301 9.17697 5.33301 9.00016C5.33301 8.82335 5.40325 8.65378 5.52827 8.52876C5.65329 8.40373 5.82286 8.3335 5.99967 8.3335C6.17649 8.3335 6.34605 8.40373 6.47108 8.52876C6.5961 8.65378 6.66634 8.82335 6.66634 9.00016ZM5.99967 11.6668C6.17649 11.6668 6.34605 11.5966 6.47108 11.4716C6.5961 11.3465 6.66634 11.177 6.66634 11.0002C6.66634 10.8234 6.5961 10.6538 6.47108 10.5288C6.34605 10.4037 6.17649 10.3335 5.99967 10.3335C5.82286 10.3335 5.65329 10.4037 5.52827 10.5288C5.40325 10.6538 5.33301 10.8234 5.33301 11.0002C5.33301 11.177 5.40325 11.3465 5.52827 11.4716C5.65329 11.5966 5.82286 11.6668 5.99967 11.6668Z" fill="#C2780E"/>
<path d="M5.99984 1.3335C5.82303 1.3335 5.65346 1.40373 5.52843 1.52876C5.40341 1.65378 5.33317 1.82335 5.33317 2.00016H3.99984C3.64622 2.00016 3.30708 2.14064 3.05703 2.39069C2.80698 2.64074 2.6665 2.97987 2.6665 3.3335V13.3335C2.6665 13.6871 2.80698 14.0263 3.05703 14.2763C3.30708 14.5264 3.64622 14.6668 3.99984 14.6668H11.9998C12.3535 14.6668 12.6926 14.5264 12.9426 14.2763C13.1927 14.0263 13.3332 13.6871 13.3332 13.3335V3.3335C13.3332 2.97987 13.1927 2.64074 12.9426 2.39069C12.6926 2.14064 12.3535 2.00016 11.9998 2.00016H10.6665C10.6665 1.82335 10.5963 1.65378 10.4712 1.52876C10.3462 1.40373 10.1766 1.3335 9.99984 1.3335H5.99984ZM10.6665 3.3335H11.9998V13.3335H3.99984V3.3335H5.33317V4.00016C5.33317 4.17697 5.40341 4.34654 5.52843 4.47157C5.65346 4.59659 5.82303 4.66683 5.99984 4.66683H9.99984C10.1766 4.66683 10.3462 4.59659 10.4712 4.47157C10.5963 4.34654 10.6665 4.17697 10.6665 4.00016V3.3335ZM6.6665 3.3335V2.66683H9.33317V3.3335H6.6665Z" fill="#C2780E"/>
</svg>
