<svg width="21" height="21" viewBox="0 0 21 21" fill="none" xmlns="http://www.w3.org/2000/svg">
<path d="M7.99992 17.1662C7.99992 18.0912 7.25825 18.8329 6.33325 18.8329C5.40825 18.8329 4.66659 18.0912 4.66659 17.1662C4.66659 16.2412 5.41658 15.4995 6.33325 15.4995C7.24992 15.4995 7.99992 16.2495 7.99992 17.1662ZM14.6666 15.4995C13.7499 15.4995 12.9999 16.2495 12.9999 17.1662C12.9999 18.0829 13.7499 18.8329 14.6666 18.8329C15.5833 18.8329 16.3333 18.0912 16.3333 17.1662C16.3333 16.2412 15.5916 15.4995 14.6666 15.4995ZM6.48109 12.8408C6.47292 12.8085 6.47899 12.7749 6.48705 12.7427C6.49559 12.7085 6.50854 12.6756 6.52556 12.6448L6.96466 11.8495C7.14065 11.5308 7.47598 11.3329 7.84008 11.3329H13.4583C14.0833 11.3329 14.6333 10.9912 14.9166 10.4745L17.7335 5.35882C17.9543 4.95779 17.8085 4.4537 17.4076 4.23254C17.0073 4.01165 16.5037 4.15646 16.2818 4.55626L15.7583 5.49954L13.7435 9.14947C13.5675 9.46827 13.2322 9.66621 12.868 9.66621H7.85797C7.70531 9.66621 7.56615 9.57876 7.49992 9.44121L5.63325 5.49954L4.84159 3.83288L4.32833 2.74085C4.16349 2.39012 3.81084 2.16621 3.42331 2.16621H2.16659C1.70635 2.16621 1.33325 2.53931 1.33325 2.99954C1.33325 3.45978 1.70635 3.83288 2.16659 3.83288H2.36744C2.75371 3.83288 3.10543 4.05533 3.27096 4.40433L5.78047 9.69521C5.91826 9.98572 5.90796 10.3248 5.75279 10.6064L4.87492 12.1995C4.74159 12.4329 4.66659 12.7079 4.66659 12.9995C4.66659 13.9245 5.41658 14.6662 6.33325 14.6662H15.4999C15.9602 14.6662 16.3333 14.2931 16.3333 13.8329C16.3333 13.3726 15.9602 12.9995 15.4999 12.9995H6.68325C6.59082 12.9995 6.50445 12.9328 6.48109 12.8408ZM14.9117 3.38681C15.2368 3.06221 15.238 2.53574 14.9143 2.20973C14.5891 1.88228 14.0598 1.88134 13.7335 2.20765L10.9987 4.94244C10.6082 5.33296 9.975 5.33296 9.58448 4.94244L8.72075 4.07871C8.39628 3.75424 7.87022 3.75424 7.54575 4.07871C7.22128 4.40318 7.22128 4.92924 7.54575 5.25371L9.58504 7.293C9.97535 7.68331 10.6081 7.68356 10.9987 7.29357L14.9117 3.38681Z" fill="#00A511"/>
</svg>
