<svg width="20" height="20" viewBox="0 0 20 20" fill="none" xmlns="http://www.w3.org/2000/svg">
<path d="M15.6688 14.7969C15.5381 14.9513 15.3998 15.1005 15.2553 15.2433C14.5788 15.9201 13.7777 16.4596 12.8961 16.8318C11.9822 17.2178 10.9999 17.4158 10.0078 17.4141M15.6688 14.7969L12.7016 3.62894M15.6688 14.7969H16.2907C14.8448 16.6829 12.5691 17.8985 10.0082 17.8985C5.66898 17.8985 2.14605 14.4063 2.10197 10.081M15.6688 14.7969L9.98676 1.60159C12.8531 1.59407 15.3883 3.02087 16.9103 5.20315H16.2911M10.0078 17.4141C9.00597 17.414 8.03375 17.2172 7.12048 16.8318L7.12042 16.8318C6.23849 16.4594 5.43706 15.9197 4.76044 15.2425C4.08265 14.5674 3.54219 13.7673 3.16896 12.8865C2.78102 11.9721 2.58637 11.0014 2.58637 10C2.58637 8.9979 2.78327 8.02749 3.16868 7.11422L3.16881 7.11391C3.54183 6.23166 4.07848 5.43739 4.76071 4.75726C5.44221 4.07785 6.23608 3.54133 7.12048 3.16828C8.03388 2.78281 9.00626 2.58597 10.0082 2.58597C11.0093 2.58597 11.9819 2.78051 12.8963 3.16841M10.0078 17.4141C10.0079 17.4141 10.0081 17.4141 10.0082 17.4141V16.9141L10.0074 17.4141C10.0075 17.4141 10.0077 17.4141 10.0078 17.4141ZM12.8963 3.16841C12.8965 3.16849 12.8967 3.16857 12.8969 3.16866L12.7016 3.62894M12.8963 3.16841C12.8962 3.16835 12.8961 3.1683 12.8959 3.16824L12.7016 3.62894M12.8963 3.16841C13.7806 3.54146 14.5744 4.07793 15.2558 4.75726L15.2563 4.7578C15.4019 4.9034 15.5382 5.05257 15.6676 5.20315M12.7016 3.62894C13.5258 3.97659 14.2661 4.47659 14.9028 5.11136C15.0571 5.26565 15.2016 5.42581 15.3403 5.58987C15.3989 5.66214 15.4887 5.70315 15.5805 5.70315H16.6443C16.533 5.53178 16.4151 5.365 16.2911 5.20315M15.6676 5.20315H15.5805C15.631 5.20315 15.6829 5.22349 15.722 5.2672C15.7243 5.26971 15.7265 5.2723 15.7287 5.27497L15.7287 5.27491L15.7221 5.26711C15.7041 5.24576 15.6859 5.22445 15.6676 5.20315ZM15.6676 5.20315H16.2911M16.2911 5.20315C14.8424 3.31217 12.5564 2.09485 9.98807 2.10159L9.98801 2.10159C5.58569 2.11261 2.05788 5.68498 2.10197 10.081M2.10197 10.081L1.602 10.086L2.10197 10.081ZM16.6465 5.70315C16.5339 5.48428 16.6844 5.23319 16.9121 5.20564C16.926 5.22561 16.9398 5.24563 16.9536 5.26572C16.9981 5.3308 17.0417 5.39654 17.0844 5.46292C17.1528 5.56644 17.0766 5.70315 16.9536 5.70315H16.7206H16.7111H16.6465ZM15.6645 9.7969H16.1645V9.2969V8.5207L18.0388 10L16.1645 11.4794V10.7032V10.2032H15.6645H9.87543V9.7969H15.6645ZM18.7498 10C18.7498 9.97632 18.7444 9.95291 18.7341 9.93159L16.1645 12.1163L18.6899 10.1231C18.7086 10.1085 18.7237 10.0898 18.7341 10.0685C18.7444 10.0471 18.7498 10.0237 18.7498 10Z" fill="white" stroke="white"/>
</svg>
