<svg width="80" height="80" viewBox="0 0 80 80" fill="none" xmlns="http://www.w3.org/2000/svg">
<path d="M19.9765 42.046V63.9817C19.9765 64.5441 19.5231 65 18.9637 65H6.01273C5.4534 65 5 64.5441 5 63.9817V42.0513C5 39.7191 5.64541 37.4329 6.86413 35.4486L6.91112 35.3721C7.97631 33.6377 8.60583 31.6695 8.74548 29.6359C9.01477 25.7162 9.47516 19.0917 9.72449 15.9372C9.76632 15.4078 10.2059 15 10.734 15H14.4899C15.0244 15 15.4667 15.4176 15.5006 15.954C15.6994 19.0992 16.0622 25.6286 16.2775 29.5507C16.3922 31.6412 17.0248 33.6693 18.1174 35.4516C19.3329 37.4342 19.9765 39.7172 19.9765 42.046Z" stroke="#919297" stroke-width="1.5" stroke-miterlimit="10" stroke-linecap="round" stroke-linejoin="round"/>
<path d="M9.39062 24.9219H15.5883" stroke="#919297" stroke-width="1.5" stroke-miterlimit="10" stroke-linecap="round" stroke-linejoin="round"/>
<path d="M8.72266 30.6016H16.2523" stroke="#919297" stroke-width="1.5" stroke-miterlimit="10" stroke-linecap="round" stroke-linejoin="round"/>
<path d="M7.94046 58.0787H5V50.6742C5 46.5156 8.35265 43.1445 12.4882 43.1445C16.6239 43.1445 19.9765 46.5157 19.9765 50.6742V58.0787H17.0287" stroke="#919297" stroke-width="1.5" stroke-miterlimit="10" stroke-linecap="round" stroke-linejoin="round"/>
<path d="M9.82031 19.0742H15.4035" stroke="#919297" stroke-width="1.5" stroke-miterlimit="10" stroke-linecap="round" stroke-linejoin="round"/>
<ellipse cx="12.4893" cy="58.0808" rx="1.01273" ry="1.01833" fill="#919297"/>
<path d="M48.1096 64.5853L26.2979 64.9727C25.7386 64.9826 25.2773 64.5348 25.2674 63.9725L25.0387 50.9519C25.0288 50.3896 25.4742 49.9257 26.0334 49.9158L47.8399 49.5285C50.1589 49.4873 52.4435 50.0958 54.4381 51.286L54.5151 51.3319C56.2584 52.3722 58.2266 52.9704 60.2512 53.0748C64.1536 53.2764 70.7487 53.6222 73.8898 53.8172C74.4169 53.8499 74.8302 54.2847 74.8395 54.8156L74.9059 58.5916C74.9153 59.129 74.5079 59.581 73.9751 59.6246C70.8512 59.88 64.3651 60.36 60.469 60.6458C58.3923 60.798 56.3868 61.4698 54.6339 62.5998C52.684 63.8568 50.4253 64.5442 48.1096 64.5853Z" stroke="#919297" stroke-width="1.5" stroke-miterlimit="10" stroke-linecap="round" stroke-linejoin="round"/>
<path d="M64.9492 53.6367L65.0587 59.8677" stroke="#919297" stroke-width="1.5" stroke-miterlimit="10" stroke-linecap="round" stroke-linejoin="round"/>
<path d="M59.2891 53.0703L59.422 60.6404" stroke="#919297" stroke-width="1.5" stroke-miterlimit="10" stroke-linecap="round" stroke-linejoin="round"/>
<path d="M31.9521 52.7669L31.9002 49.8106L39.2629 49.6798C43.398 49.6064 46.8092 52.9175 46.8822 57.0753C46.9553 61.2332 43.6624 64.6633 39.5274 64.7367L32.1647 64.8675L32.1126 61.9039" stroke="#919297" stroke-width="1.5" stroke-miterlimit="10" stroke-linecap="round" stroke-linejoin="round"/>
<path d="M70.7734 53.9688L70.872 59.5819" stroke="#919297" stroke-width="1.5" stroke-miterlimit="10" stroke-linecap="round" stroke-linejoin="round"/>
<ellipse cx="1.01833" cy="1.01273" rx="1.01833" ry="1.01273" transform="matrix(0.0175628 0.999846 -0.999842 0.0177574 33.0273 56.3008)" fill="#919297"/>
</svg>
